<?xml version="1.0" encoding="UTF-8"?>
<svg xmlns="http://www.w3.org/2000/svg" viewBox="0 0 559.87 112.00" width="559.87" height="112.00" fill="none">
  <g transform="translate(24.000 20.000) scale(0.720000)">
  <circle cx="50.0" cy="50.0" r="42.0" fill="none" stroke="#0B1C2C" stroke-width="7.500"/>
  <path d="M 50.000,20.000 L 75.981,35.000 L 75.981,65.000 L 50.000,80.000 L 24.019,65.000 L 24.019,35.000 Z" fill="none" stroke="#0B1C2C" stroke-width="5.500" stroke-linejoin="round"/>
  <circle cx="50.0" cy="50.0" r="16.5" fill="none" stroke="#0B1C2C" stroke-width="4.000"/>
  <path d="M 45.900,41.000 L 60.300,50.000 L 45.900,59.000 Z" fill="#E8A838"/>
</g>
  <path transform="translate(114.000 68.960) scale(0.042000 -0.042000)" d="M227.6400146484375 0 37.1199951171875 710H178.6402587890625L307.0401611328125 185.7603759765625L436.2000732421875 710H559.72021484375L689.4401245117188 185.7603759765625L816.8400268554688 710H958.9202880859375L768.8402709960938 0H620.3600463867188L497.96014404296875 479.599609375L375.56024169921875 0Z" fill="#0B1C2C"/>
<path transform="translate(156.232 68.960) scale(0.042000 -0.042000)" d="M69.43994140625 0V710H201.8402099609375V411.67999267578125L184.8001708984375 411.91998291015625Q193.0401611328125 458.1199951171875 216.82015991210938 487.6600036621094Q240.60015869140625 517.2000122070312 275.8201599121094 531.8000183105469Q311.0401611328125 546.4000244140625 353.0401611328125 546.4000244140625Q412.24017333984375 546.4000244140625 452.4001770019531 520.6800231933594Q492.5601806640625 494.96002197265625 513.0601806640625 449.02001953125Q533.5601806640625 403.08001708984375 533.5601806640625 343.6400146484375V0H401.159912109375V311.27996826171875Q401.159912109375 375.5198974609375 380.0399475097656 407.4598693847656Q358.91998291015625 439.39984130859375 312.1600341796875 439.39984130859375Q261.360107421875 439.39984130859375 231.60015869140625 406.119873046875Q201.8402099609375 372.83990478515625 201.8402099609375 308.0799560546875V0Z" fill="#0B1C2C"/>
<path transform="translate(181.958 68.960) scale(0.042000 -0.042000)" d="M301.9600830078125 -12Q221.6800537109375 -12 162.56002807617188 22.44000244140625Q103.44000244140625 56.8800048828125 71.07998657226562 119.82000732421875Q38.719970703125 182.760009765625 38.719970703125 267.20001220703125Q38.719970703125 351.6400146484375 71.07998657226562 414.08001708984375Q103.44000244140625 476.52001953125 162.00003051757812 511.46002197265625Q220.56005859375 546.4000244140625 299.7200927734375 546.4000244140625Q376.64013671875 546.4000244140625 434.2601623535156 512.1400146484375Q491.88018798828125 477.8800048828125 523.3601989746094 413.67999267578125Q554.8402099609375 349.47998046875 554.8402099609375 259.5999755859375V230.63995361328125H176.000244140625Q179.68023681640625 161.48004150390625 213.5802001953125 127.06008911132812Q247.48016357421875 92.64013671875 303.7200927734375 92.64013671875Q345.60003662109375 92.64013671875 373.3800048828125 111.20010375976562Q401.15997314453125 129.76007080078125 412.39996337890625 164.48004150390625L547.2802124023438 156.1600341796875Q525.8402099609375 78.1199951171875 460.5201721191406 33.05999755859375Q395.20013427734375 -12 301.9600830078125 -12ZM176.000244140625 317.84002685546875H417.9599609375Q414.15997314453125 381.63995361328125 382.0400085449219 412.5799255371094Q349.9200439453125 443.5198974609375 299.7200927734375 443.5198974609375Q249.2801513671875 443.5198974609375 216.38018798828125 411.0799255371094Q183.480224609375 378.63995361328125 176.000244140625 317.84002685546875Z" fill="#0B1C2C"/>
<path transform="translate(207.306 68.960) scale(0.042000 -0.042000)" d="M69.43994140625 0V534.4000244140625H193.6002197265625L198.480224609375 384.5599365234375L187.8402099609375 387.11993408203125Q200.04022216796875 464.79998779296875 233.32022094726562 499.6000061035156Q266.6002197265625 534.4000244140625 324.3602294921875 534.4000244140625H373.72021484375V421.83984375H324.04022216796875Q282.72021484375 421.83984375 255.78021240234375 409.9798583984375Q228.8402099609375 398.119873046875 215.3402099609375 372.9198913574219Q201.8402099609375 347.71990966796875 201.8402099609375 306.35992431640625V0Z" fill="#0B1C2C"/>
<path transform="translate(225.010 68.960) scale(0.042000 -0.042000)" d="M301.9600830078125 -12Q221.6800537109375 -12 162.56002807617188 22.44000244140625Q103.44000244140625 56.8800048828125 71.07998657226562 119.82000732421875Q38.719970703125 182.760009765625 38.719970703125 267.20001220703125Q38.719970703125 351.6400146484375 71.07998657226562 414.08001708984375Q103.44000244140625 476.52001953125 162.00003051757812 511.46002197265625Q220.56005859375 546.4000244140625 299.7200927734375 546.4000244140625Q376.64013671875 546.4000244140625 434.2601623535156 512.1400146484375Q491.88018798828125 477.8800048828125 523.3601989746094 413.67999267578125Q554.8402099609375 349.47998046875 554.8402099609375 259.5999755859375V230.63995361328125H176.000244140625Q179.68023681640625 161.48004150390625 213.5802001953125 127.06008911132812Q247.48016357421875 92.64013671875 303.7200927734375 92.64013671875Q345.60003662109375 92.64013671875 373.3800048828125 111.20010375976562Q401.15997314453125 129.76007080078125 412.39996337890625 164.48004150390625L547.2802124023438 156.1600341796875Q525.8402099609375 78.1199951171875 460.5201721191406 33.05999755859375Q395.20013427734375 -12 301.9600830078125 -12ZM176.000244140625 317.84002685546875H417.9599609375Q414.15997314453125 381.63995361328125 382.0400085449219 412.5799255371094Q349.9200439453125 443.5198974609375 299.7200927734375 443.5198974609375Q249.2801513671875 443.5198974609375 216.38018798828125 411.0799255371094Q183.480224609375 378.63995361328125 176.000244140625 317.84002685546875Z" fill="#0B1C2C"/>
<path transform="translate(250.358 68.960) scale(0.042000 -0.042000)" d="M225.9599609375 0V593.8798217773438H11.1199951171875V710H575.6401977539062V593.8798217773438H360.80023193359375V0Z" fill="#0B1C2C"/>
<path transform="translate(275.412 68.960) scale(0.042000 -0.042000)" d="M303.28009033203125 -12Q223.6800537109375 -12 164.06002807617188 22.44000244140625Q104.44000244140625 56.8800048828125 71.57998657226562 119.82000732421875Q38.719970703125 182.760009765625 38.719970703125 267.20001220703125Q38.719970703125 352.20001220703125 71.57998657226562 414.6400146484375Q104.44000244140625 477.08001708984375 164.06002807617188 511.7400207519531Q223.6800537109375 546.4000244140625 303.28009033203125 546.4000244140625Q382.880126953125 546.4000244140625 442.22015380859375 511.7400207519531Q501.5601806640625 477.08001708984375 534.4201965332031 414.6400146484375Q567.2802124023438 352.20001220703125 567.2802124023438 267.20001220703125Q567.2802124023438 182.760009765625 534.4201965332031 119.82000732421875Q501.5601806640625 56.8800048828125 442.22015380859375 22.44000244140625Q382.880126953125 -12 303.28009033203125 -12ZM303.28009033203125 93.96014404296875Q363.96002197265625 93.96014404296875 397.1999816894531 139.64010620117188Q430.43994140625 185.320068359375 430.43994140625 267.20001220703125Q430.43994140625 348.63995361328125 397.1999816894531 394.5399169921875Q363.96002197265625 440.43988037109375 303.28009033203125 440.43988037109375Q242.60015869140625 440.43988037109375 209.0802001953125 394.5399169921875Q175.56024169921875 348.63995361328125 175.56024169921875 267.20001220703125Q175.56024169921875 185.320068359375 209.0802001953125 139.64010620117188Q242.60015869140625 93.96014404296875 303.28009033203125 93.96014404296875Z" fill="#0B1C2C"/>
<path transform="translate(301.264 68.960) scale(0.042000 -0.042000)" d="M227.6400146484375 0 37.1199951171875 710H178.6402587890625L307.0401611328125 185.7603759765625L436.2000732421875 710H559.72021484375L689.4401245117188 185.7603759765625L816.8400268554688 710H958.9202880859375L768.8402709960938 0H620.3600463867188L497.96014404296875 479.599609375L375.56024169921875 0Z" fill="#0B1C2C"/>
<path transform="translate(343.496 68.960) scale(0.042000 -0.042000)" d="M224.760009765625 -12Q141.44000244140625 -12 90.07998657226562 26.44000244140625Q38.719970703125 64.8800048828125 38.719970703125 133.760009765625Q38.719970703125 203.52001953125 82.01998901367188 242.30001831054688Q125.32000732421875 281.08001708984375 212.760009765625 298.4000244140625L389.3199462890625 332.96002197265625Q389.3199462890625 388.9599609375 363.7599792480469 417.11993408203125Q338.20001220703125 445.2799072265625 288.840087890625 445.2799072265625Q243.08013916015625 445.2799072265625 217.02017211914062 424.2999267578125Q190.960205078125 403.3199462890625 182.04022216796875 363.47998046875L47.719970703125 370.03997802734375Q63.15997314453125 455.1600341796875 125.72000122070312 500.780029296875Q188.280029296875 546.4000244140625 288.840087890625 546.4000244140625Q404.0401611328125 546.4000244140625 462.88018798828125 489.1200256347656Q521.72021484375 431.84002685546875 521.72021484375 324.239990234375V132.08013916015625Q521.72021484375 110.56011962890625 529.1002197265625 102.84011840820312Q536.480224609375 95.1201171875 551.480224609375 95.1201171875H568.0802001953125V0Q561.8801879882812 -1.8800048828125 548.0401611328125 -3.260009765625Q534.2001342773438 -4.6400146484375 520.2401123046875 -4.6400146484375Q487.32012939453125 -4.6400146484375 461.0801086425781 6.199981689453125Q434.840087890625 17.03997802734375 420.00006103515625 43.29998779296875Q405.1600341796875 69.55999755859375 405.1600341796875 116.1600341796875L416.9200439453125 108Q408.1600341796875 72.67999267578125 382.0400390625 45.399993896484375Q355.9200439453125 18.1199951171875 315.7000427246094 3.05999755859375Q275.48004150390625 -12 224.760009765625 -12ZM253.0001220703125 83.1201171875Q294.56005859375 83.1201171875 325.02001953125 99.44009399414062Q355.47998046875 115.76007080078125 372.39996337890625 145.5400390625Q389.3199462890625 175.32000732421875 389.3199462890625 215.3599853515625V244.5599365234375L254.2801513671875 216.9599609375Q213.04022216796875 208.719970703125 194.30023193359375 191.29998779296875Q175.56024169921875 173.8800048828125 175.56024169921875 146.1600341796875Q175.56024169921875 116.2000732421875 195.68020629882812 99.66009521484375Q215.8001708984375 83.1201171875 253.0001220703125 83.1201171875Z" fill="#0B1C2C"/>
<path transform="translate(368.382 68.960) scale(0.042000 -0.042000)" d="M284.56005859375 0Q204.20001220703125 0 166.39999389648438 37.180023193359375Q128.5999755859375 74.36004638671875 128.5999755859375 154.4801025390625V659.7200317382812H261.000244140625V167.920166015625Q261.000244140625 130.16015625 277.2202453613281 115.94015502929688Q293.44024658203125 101.72015380859375 326.8802490234375 101.72015380859375H402.000244140625V0ZM44.43994140625 432.67987060546875V534.4000244140625H402.000244140625V432.67987060546875Z" fill="#0B1C2C"/>
<path transform="translate(386.884 68.960) scale(0.042000 -0.042000)" d="M303.28009033203125 -12Q223.12005615234375 -12 163.780029296875 22.44000244140625Q104.44000244140625 56.8800048828125 71.57998657226562 119.82000732421875Q38.719970703125 182.760009765625 38.719970703125 267.20001220703125Q38.719970703125 351.6400146484375 71.57998657226562 414.08001708984375Q104.44000244140625 476.52001953125 163.780029296875 511.46002197265625Q223.12005615234375 546.4000244140625 303.28009033203125 546.4000244140625Q371.7601318359375 546.4000244140625 425.6401672363281 522.260009765625Q479.52020263671875 498.1199951171875 513.2602233886719 452.9399719238281Q547.000244140625 407.75994873046875 555.1202392578125 343.47991943359375L418.27996826171875 336.59991455078125Q410.5999755859375 387.39990234375 379.760009765625 413.69989013671875Q348.9200439453125 439.9998779296875 303.28009033203125 439.9998779296875Q242.60015869140625 439.9998779296875 209.0802001953125 394.3199157714844Q175.56024169921875 348.63995361328125 175.56024169921875 267.20001220703125Q175.56024169921875 185.320068359375 209.0802001953125 139.64010620117188Q242.60015869140625 93.96014404296875 303.28009033203125 93.96014404296875Q349.36004638671875 93.96014404296875 380.4200134277344 121.10012817382812Q411.47998046875 148.2401123046875 418.27996826171875 204.28009033203125L555.1202392578125 198.28009033203125Q547.4402465820312 134.00006103515625 514.1402282714844 86.76004028320312Q480.8402099609375 39.52001953125 426.9601745605469 13.760009765625Q373.08013916015625 -12 303.28009033203125 -12Z" fill="#0B1C2C"/>
<path transform="translate(411.812 68.960) scale(0.042000 -0.042000)" d="M69.43994140625 0V710H201.8402099609375V411.67999267578125L184.8001708984375 411.91998291015625Q193.0401611328125 458.1199951171875 216.82015991210938 487.6600036621094Q240.60015869140625 517.2000122070312 275.8201599121094 531.8000183105469Q311.0401611328125 546.4000244140625 353.0401611328125 546.4000244140625Q412.24017333984375 546.4000244140625 452.4001770019531 520.6800231933594Q492.5601806640625 494.96002197265625 513.0601806640625 449.02001953125Q533.5601806640625 403.08001708984375 533.5601806640625 343.6400146484375V0H401.159912109375V311.27996826171875Q401.159912109375 375.5198974609375 380.0399475097656 407.4598693847656Q358.91998291015625 439.39984130859375 312.1600341796875 439.39984130859375Q261.360107421875 439.39984130859375 231.60015869140625 406.119873046875Q201.8402099609375 372.83990478515625 201.8402099609375 308.0799560546875V0Z" fill="#0B1C2C"/>
  <path transform="translate(443.138 68.960) scale(0.042000 -0.042000)" d="M83.0003662109375 0V710H550.8994750976562V604.1008911132812H138.29986572265625L201.9990234375 669.7000122070312V344L138.29986572265625 399.09954833984375H532.8994750976562V294.90045166015625H138.29986572265625L201.9990234375 350V0Z" fill="#E8A838"/>
<path transform="translate(468.812 68.960) scale(0.042000 -0.042000)" d="M72.80029296875 0V532.9998779296875H180.9989013671875L185.598876953125 388.2003173828125L175.7989501953125 390.90032958984375Q187.29888916015625 465.50006103515625 220.64889526367188 499.2499694824219Q253.9989013671875 532.9998779296875 311.1988525390625 532.9998779296875H361.39892578125V430.80078125H311.29888916015625Q270.39892578125 430.80078125 243.59893798828125 418.1007080078125Q216.7989501953125 405.400634765625 203.2989501953125 379.1505432128906Q189.7989501953125 352.90045166015625 189.7989501953125 310.70037841796875V0Z" fill="#E8A838"/>
<path transform="translate(486.296 68.960) scale(0.042000 -0.042000)" d="M297.1995849609375 -12Q218.5997314453125 -12 160.94985961914062 22.29998779296875Q103.29998779296875 56.5999755859375 71.85006713867188 119.39996337890625Q40.400146484375 182.199951171875 40.400146484375 266.49993896484375Q40.400146484375 350.7999267578125 71.85006713867188 413.09991455078125Q103.29998779296875 475.39990234375 160.24984741210938 510.19989013671875Q217.19970703125 544.9998779296875 294.3995361328125 544.9998779296875Q368.79931640625 544.9998779296875 424.9491882324219 511.2999267578125Q481.09906005859375 477.5999755859375 511.9490051269531 414.10003662109375Q542.7989501953125 350.60009765625 542.7989501953125 261.0001220703125V233.30023193359375H161.998779296875Q166.09881591796875 159.09979248046875 202.0989990234375 121.94955444335938Q238.09918212890625 84.79931640625 298.3995361328125 84.79931640625Q343.49981689453125 84.79931640625 373.0999755859375 105.24948120117188Q402.70013427734375 125.69964599609375 414.50018310546875 162.09979248046875L535.0989379882812 154.1998291015625Q513.7989501953125 78.4000244140625 450.6491394042969 33.20001220703125Q387.49932861328125 -12 297.1995849609375 -12ZM161.998779296875 316.29986572265625H420.2001953125Q415.70013427734375 384.30023193359375 381.5499572753906 416.8503723144531Q347.3997802734375 449.4005126953125 294.3995361328125 449.4005126953125Q240.5992431640625 449.4005126953125 205.59906005859375 415.3503723144531Q170.598876953125 381.30023193359375 161.998779296875 316.29986572265625Z" fill="#E8A838"/>
<path transform="translate(511.382 68.960) scale(0.042000 -0.042000)" d="M297.1995849609375 -12Q218.5997314453125 -12 160.94985961914062 22.29998779296875Q103.29998779296875 56.5999755859375 71.85006713867188 119.39996337890625Q40.400146484375 182.199951171875 40.400146484375 266.49993896484375Q40.400146484375 350.7999267578125 71.85006713867188 413.09991455078125Q103.29998779296875 475.39990234375 160.24984741210938 510.19989013671875Q217.19970703125 544.9998779296875 294.3995361328125 544.9998779296875Q368.79931640625 544.9998779296875 424.9491882324219 511.2999267578125Q481.09906005859375 477.5999755859375 511.9490051269531 414.10003662109375Q542.7989501953125 350.60009765625 542.7989501953125 261.0001220703125V233.30023193359375H161.998779296875Q166.09881591796875 159.09979248046875 202.0989990234375 121.94955444335938Q238.09918212890625 84.79931640625 298.3995361328125 84.79931640625Q343.49981689453125 84.79931640625 373.0999755859375 105.24948120117188Q402.70013427734375 125.69964599609375 414.50018310546875 162.09979248046875L535.0989379882812 154.1998291015625Q513.7989501953125 78.4000244140625 450.6491394042969 33.20001220703125Q387.49932861328125 -12 297.1995849609375 -12ZM161.998779296875 316.29986572265625H420.2001953125Q415.70013427734375 384.30023193359375 381.5499572753906 416.8503723144531Q347.3997802734375 449.4005126953125 294.3995361328125 449.4005126953125Q240.5992431640625 449.4005126953125 205.59906005859375 415.3503723144531Q170.598876953125 381.30023193359375 161.998779296875 316.29986572265625Z" fill="#E8A838"/>
</svg>